<svg xmlns="http://www.w3.org/2000/svg" width="25" height="25"><path d="M8.332 12.508a4.164 4.164 0 014.16-4.172 4.158 4.158 0 014.172 4.156 4.158 4.158 0 01-4.156 4.172 4.164 4.164 0 01-4.176-4.156zm-2.25.004a6.417 6.417 0 1012.836-.024 6.418 6.418 0 10-12.836.024zM17.66 5.82c0 .828.676 1.496 1.504 1.492a1.497 1.497 0 10-.008-2.996c-.828 0-1.5.676-1.496 1.504zM7.47 22.684c-1.219-.051-1.88-.254-2.32-.426-.587-.227-1-.496-1.442-.93a3.938 3.938 0 01-.937-1.437c-.168-.442-.38-1.102-.434-2.32-.063-1.321-.078-1.712-.082-5.051-.008-3.336.004-3.73.062-5.051.051-1.219.258-1.883.426-2.32.227-.587.496-1 .934-1.442A3.89 3.89 0 015.11 2.77c.442-.172 1.102-.375 2.32-.434 1.321-.063 1.716-.078 5.051-.082 3.336-.008 3.73.004 5.051.062 1.219.055 1.883.254 2.32.426.587.227 1 .496 1.442.934.437.433.707.851.937 1.433.172.442.375 1.102.434 2.32.063 1.321.078 1.716.082 5.051.008 3.336-.004 3.73-.062 5.051-.055 1.219-.254 1.883-.426 2.32-.227.587-.496 1-.934 1.442a3.89 3.89 0 01-1.433.937c-.442.172-1.102.375-2.32.434-1.321.063-1.712.078-5.051.082-3.336.008-3.73-.004-5.051-.062zM7.324.086C5.992.148 5.086.363 4.29.672a6.15 6.15 0 00-2.21 1.445A6.207 6.207 0 00.64 4.336C.336 5.133.125 6.039.066 7.37c-.058 1.333-.07 1.76-.062 5.153.004 3.395.02 3.82.082 5.157.062 1.328.277 2.234.586 3.03.32.821.75 1.517 1.445 2.212a6.24 6.24 0 002.219 1.437c.797.305 1.703.516 3.035.575 1.332.058 1.758.07 5.152.066 3.395-.008 3.82-.023 5.157-.086 1.328-.062 2.234-.277 3.03-.586a6.15 6.15 0 002.212-1.445 6.174 6.174 0 001.437-2.219c.305-.797.516-1.703.575-3.035.058-1.332.07-1.758.066-5.152-.008-3.395-.023-3.82-.086-5.153-.062-1.332-.277-2.238-.586-3.035a6.15 6.15 0 00-1.445-2.21A6.174 6.174 0 0020.664.64C19.867.336 18.961.125 17.63.066c-1.332-.058-1.758-.07-5.152-.062-3.395.004-3.82.02-5.153.082zm0 0"/></svg>