<svg xmlns="http://www.w3.org/2000/svg" width="25" height="25"><path d="M21.266 5.012c-1.543-.88-2.657-2.282-3.008-3.918a5.292 5.292 0 01-.117-1.09h-4.926l-.008 17.219c-.082 1.93-1.902 3.476-4.137 3.476a4.656 4.656 0 01-1.922-.414c-1.316-.605-2.218-1.808-2.218-3.2 0-1.987 1.86-3.608 4.14-3.608.43 0 .836.062 1.223.164V9.258A9.739 9.739 0 009.07 9.18c-5 0-9.07 3.547-9.07 7.906 0 2.68 1.531 5.047 3.875 6.477 1.469.902 3.266 1.433 5.195 1.433 5.004 0 9.07-3.547 9.07-7.91v-8.73c1.934 1.21 4.305 1.921 6.86 1.921V5.98a7.535 7.535 0 01-3.734-.968zm0 0"/></svg>