<svg xmlns="http://www.w3.org/2000/svg" width="25" height="25"><path d="M24.746 7.5s-.246-1.723-.996-2.477c-.953-.996-2.016-1.003-2.504-1.062-3.496-.254-8.746-.254-8.746-.254h-.012s-5.246 0-8.746.254c-.488.062-1.55.066-2.504 1.062C.488 5.777.25 7.5.25 7.5S0 9.523 0 11.55v1.895c0 2.024.25 4.047.25 4.047s.242 1.727.988 2.485c.953.992 2.203.96 2.762 1.066 2 .191 8.5.25 8.5.25s5.258-.012 8.75-.262c.492-.054 1.555-.062 2.508-1.058.75-.754.992-2.48.992-2.48s.25-2.024.25-4.048v-1.898c-.004-2.02-.254-4.047-.254-4.047zM9.91 15.742V8.72l6.754 3.523zm0 0" fill-rule="evenodd"/></svg>